<mxfile host="app.diagrams.net" modified="2024-03-08T21:48:17.988Z" agent="Mozilla/5.0 (Windows NT 10.0; Win64; x64) AppleWebKit/537.36 (KHTML, like Gecko) Chrome/122.0.0.0 Safari/537.36 Edg/122.0.0.0" etag="PFRPjEXOgzbutded1zJm" version="24.0.2" type="device">
  <diagram name="Página-1" id="a5dgiBmYjxUgwOGm32Wy">
    <mxGraphModel dx="2760" dy="2433" grid="1" gridSize="10" guides="1" tooltips="1" connect="1" arrows="1" fold="1" page="1" pageScale="1" pageWidth="827" pageHeight="1169" math="0" shadow="0">
      <root>
        <mxCell id="0" />
        <mxCell id="1" parent="0" />
        <mxCell id="jr4THGVV36sE1CVQ1dHQ-3" value="" style="edgeStyle=orthogonalEdgeStyle;rounded=0;orthogonalLoop=1;jettySize=auto;html=1;" edge="1" parent="1" source="jr4THGVV36sE1CVQ1dHQ-1" target="jr4THGVV36sE1CVQ1dHQ-2">
          <mxGeometry relative="1" as="geometry" />
        </mxCell>
        <mxCell id="jr4THGVV36sE1CVQ1dHQ-1" value="INICIO" style="ellipse;whiteSpace=wrap;html=1;" vertex="1" parent="1">
          <mxGeometry y="30" width="120" height="80" as="geometry" />
        </mxCell>
        <mxCell id="jr4THGVV36sE1CVQ1dHQ-5" value="" style="edgeStyle=orthogonalEdgeStyle;rounded=0;orthogonalLoop=1;jettySize=auto;html=1;" edge="1" parent="1" source="jr4THGVV36sE1CVQ1dHQ-2" target="jr4THGVV36sE1CVQ1dHQ-4">
          <mxGeometry relative="1" as="geometry" />
        </mxCell>
        <mxCell id="jr4THGVV36sE1CVQ1dHQ-2" value="&quot;Ingresar las calificaciones&quot;" style="whiteSpace=wrap;html=1;" vertex="1" parent="1">
          <mxGeometry x="200" y="40" width="180" height="60" as="geometry" />
        </mxCell>
        <mxCell id="jr4THGVV36sE1CVQ1dHQ-7" value="" style="edgeStyle=orthogonalEdgeStyle;rounded=0;orthogonalLoop=1;jettySize=auto;html=1;" edge="1" parent="1" source="jr4THGVV36sE1CVQ1dHQ-10" target="jr4THGVV36sE1CVQ1dHQ-6">
          <mxGeometry relative="1" as="geometry" />
        </mxCell>
        <mxCell id="jr4THGVV36sE1CVQ1dHQ-9" value="" style="edgeStyle=orthogonalEdgeStyle;rounded=0;orthogonalLoop=1;jettySize=auto;html=1;" edge="1" parent="1" source="jr4THGVV36sE1CVQ1dHQ-4" target="jr4THGVV36sE1CVQ1dHQ-8">
          <mxGeometry relative="1" as="geometry" />
        </mxCell>
        <mxCell id="jr4THGVV36sE1CVQ1dHQ-4" value="¿Se ingresaron todas las calificaciones?" style="rhombus;whiteSpace=wrap;html=1;" vertex="1" parent="1">
          <mxGeometry x="530" y="-5" width="160" height="150" as="geometry" />
        </mxCell>
        <mxCell id="jr4THGVV36sE1CVQ1dHQ-20" value="" style="edgeStyle=orthogonalEdgeStyle;rounded=0;orthogonalLoop=1;jettySize=auto;html=1;" edge="1" parent="1" source="jr4THGVV36sE1CVQ1dHQ-6" target="jr4THGVV36sE1CVQ1dHQ-19">
          <mxGeometry relative="1" as="geometry" />
        </mxCell>
        <mxCell id="jr4THGVV36sE1CVQ1dHQ-6" value="&quot;Calcular las calificaciones&quot;" style="whiteSpace=wrap;html=1;" vertex="1" parent="1">
          <mxGeometry x="505" y="460" width="210" height="60" as="geometry" />
        </mxCell>
        <mxCell id="jr4THGVV36sE1CVQ1dHQ-13" value="" style="edgeStyle=orthogonalEdgeStyle;rounded=0;orthogonalLoop=1;jettySize=auto;html=1;" edge="1" parent="1" source="jr4THGVV36sE1CVQ1dHQ-8" target="jr4THGVV36sE1CVQ1dHQ-12">
          <mxGeometry relative="1" as="geometry" />
        </mxCell>
        <mxCell id="jr4THGVV36sE1CVQ1dHQ-8" value="NO" style="whiteSpace=wrap;html=1;" vertex="1" parent="1">
          <mxGeometry x="920" y="40" width="180" height="60" as="geometry" />
        </mxCell>
        <mxCell id="jr4THGVV36sE1CVQ1dHQ-11" value="" style="edgeStyle=orthogonalEdgeStyle;rounded=0;orthogonalLoop=1;jettySize=auto;html=1;" edge="1" parent="1" source="jr4THGVV36sE1CVQ1dHQ-4" target="jr4THGVV36sE1CVQ1dHQ-10">
          <mxGeometry relative="1" as="geometry">
            <mxPoint x="610" y="145" as="sourcePoint" />
            <mxPoint x="610" y="320" as="targetPoint" />
          </mxGeometry>
        </mxCell>
        <mxCell id="jr4THGVV36sE1CVQ1dHQ-10" value="SI" style="rounded=0;whiteSpace=wrap;html=1;" vertex="1" parent="1">
          <mxGeometry x="530" y="250" width="160" height="60" as="geometry" />
        </mxCell>
        <mxCell id="jr4THGVV36sE1CVQ1dHQ-15" value="" style="edgeStyle=orthogonalEdgeStyle;rounded=0;orthogonalLoop=1;jettySize=auto;html=1;" edge="1" parent="1" source="jr4THGVV36sE1CVQ1dHQ-12">
          <mxGeometry relative="1" as="geometry">
            <mxPoint x="1010" y="490" as="targetPoint" />
          </mxGeometry>
        </mxCell>
        <mxCell id="jr4THGVV36sE1CVQ1dHQ-12" value="&quot;Ingresar las calificaciones&quot;" style="whiteSpace=wrap;html=1;" vertex="1" parent="1">
          <mxGeometry x="930" y="250" width="160" height="60" as="geometry" />
        </mxCell>
        <mxCell id="jr4THGVV36sE1CVQ1dHQ-18" value="" style="edgeStyle=orthogonalEdgeStyle;rounded=0;orthogonalLoop=1;jettySize=auto;html=1;entryX=1;entryY=0.5;entryDx=0;entryDy=0;" edge="1" parent="1" target="jr4THGVV36sE1CVQ1dHQ-6">
          <mxGeometry relative="1" as="geometry">
            <mxPoint x="1010" y="490" as="sourcePoint" />
            <mxPoint x="869.9999999999995" y="490" as="targetPoint" />
          </mxGeometry>
        </mxCell>
        <mxCell id="jr4THGVV36sE1CVQ1dHQ-22" value="" style="edgeStyle=orthogonalEdgeStyle;rounded=0;orthogonalLoop=1;jettySize=auto;html=1;" edge="1" parent="1" source="jr4THGVV36sE1CVQ1dHQ-19" target="jr4THGVV36sE1CVQ1dHQ-21">
          <mxGeometry relative="1" as="geometry" />
        </mxCell>
        <mxCell id="jr4THGVV36sE1CVQ1dHQ-26" value="" style="edgeStyle=orthogonalEdgeStyle;rounded=0;orthogonalLoop=1;jettySize=auto;html=1;" edge="1" parent="1" source="jr4THGVV36sE1CVQ1dHQ-19" target="jr4THGVV36sE1CVQ1dHQ-25">
          <mxGeometry relative="1" as="geometry" />
        </mxCell>
        <mxCell id="jr4THGVV36sE1CVQ1dHQ-19" value="&lt;span style=&quot;color: rgb(189, 193, 198); font-family: &amp;quot;Google Sans&amp;quot;, arial, sans-serif; font-size: 16px; text-align: start; background-color: rgb(32, 33, 36);&quot;&gt;¿El promedio es &amp;gt;=7?&lt;/span&gt;" style="rhombus;whiteSpace=wrap;html=1;" vertex="1" parent="1">
          <mxGeometry x="460" y="590" width="300" height="230" as="geometry" />
        </mxCell>
        <mxCell id="jr4THGVV36sE1CVQ1dHQ-24" value="" style="edgeStyle=orthogonalEdgeStyle;rounded=0;orthogonalLoop=1;jettySize=auto;html=1;" edge="1" parent="1" source="jr4THGVV36sE1CVQ1dHQ-21" target="jr4THGVV36sE1CVQ1dHQ-23">
          <mxGeometry relative="1" as="geometry" />
        </mxCell>
        <mxCell id="jr4THGVV36sE1CVQ1dHQ-21" value="SI" style="whiteSpace=wrap;html=1;" vertex="1" parent="1">
          <mxGeometry x="110" y="675" width="120" height="60" as="geometry" />
        </mxCell>
        <mxCell id="jr4THGVV36sE1CVQ1dHQ-32" value="" style="edgeStyle=orthogonalEdgeStyle;rounded=0;orthogonalLoop=1;jettySize=auto;html=1;entryX=0;entryY=0.5;entryDx=0;entryDy=0;" edge="1" parent="1" source="jr4THGVV36sE1CVQ1dHQ-23" target="jr4THGVV36sE1CVQ1dHQ-29">
          <mxGeometry relative="1" as="geometry">
            <mxPoint x="450" y="950" as="targetPoint" />
          </mxGeometry>
        </mxCell>
        <mxCell id="jr4THGVV36sE1CVQ1dHQ-23" value="Mostrar en pantalla: El alumno aprobó" style="whiteSpace=wrap;html=1;" vertex="1" parent="1">
          <mxGeometry x="50" y="920" width="240" height="60" as="geometry" />
        </mxCell>
        <mxCell id="jr4THGVV36sE1CVQ1dHQ-28" value="" style="edgeStyle=orthogonalEdgeStyle;rounded=0;orthogonalLoop=1;jettySize=auto;html=1;" edge="1" parent="1" source="jr4THGVV36sE1CVQ1dHQ-25" target="jr4THGVV36sE1CVQ1dHQ-27">
          <mxGeometry relative="1" as="geometry" />
        </mxCell>
        <mxCell id="jr4THGVV36sE1CVQ1dHQ-25" value="NO" style="whiteSpace=wrap;html=1;" vertex="1" parent="1">
          <mxGeometry x="990" y="675" width="120" height="60" as="geometry" />
        </mxCell>
        <mxCell id="jr4THGVV36sE1CVQ1dHQ-30" value="" style="edgeStyle=orthogonalEdgeStyle;rounded=0;orthogonalLoop=1;jettySize=auto;html=1;" edge="1" parent="1" source="jr4THGVV36sE1CVQ1dHQ-27" target="jr4THGVV36sE1CVQ1dHQ-29">
          <mxGeometry relative="1" as="geometry" />
        </mxCell>
        <mxCell id="jr4THGVV36sE1CVQ1dHQ-27" value="Mostrar: El alumno no aprobó" style="whiteSpace=wrap;html=1;" vertex="1" parent="1">
          <mxGeometry x="935" y="920" width="230" height="60" as="geometry" />
        </mxCell>
        <mxCell id="jr4THGVV36sE1CVQ1dHQ-29" value="FIN" style="ellipse;whiteSpace=wrap;html=1;" vertex="1" parent="1">
          <mxGeometry x="530" y="910" width="160" height="80" as="geometry" />
        </mxCell>
      </root>
    </mxGraphModel>
  </diagram>
</mxfile>
